<?xml version="1.0" encoding="UTF-8"?><svg id="Layer_2" xmlns="http://www.w3.org/2000/svg" width="304.8513" height="501" viewBox="0 0 304.8513 501"><g id="Layer_1-2"><g><ellipse id="Left_Foot" cx="89.6766" cy="488.2158" rx="54.1169" ry="12.2842" fill="#fff" stroke="#231f20" stroke-miterlimit="10"/><ellipse id="Right_Foot" cx="215.1746" cy="488.2158" rx="54.1169" ry="12.2842" fill="#fff" stroke="#231f20" stroke-miterlimit="10"/><ellipse id="Left_Arm" cx="53.5281" cy="279.7411" rx="65.7371" ry="16.3878" transform="translate(-159.6441 90.855) rotate(-37.6242)" fill="#fff" stroke="#231f20" stroke-miterlimit="10"/><ellipse id="Right_Arm" cx="251.3232" cy="279.7411" rx="16.3878" ry="65.7371" transform="translate(-123.6684 308.0209) rotate(-52.3758)" fill="#fff" stroke="#231f20" stroke-miterlimit="10"/><ellipse id="Torso" cx="152.4256" cy="344.006" rx="48.1408" ry="131.9256" fill="#fff" stroke="#231f20" stroke-miterlimit="10"/><circle id="Head" cx="152.4256" cy="119.0259" r="118.5259" fill="#fff" stroke="#231f20" stroke-miterlimit="10"/><g id="Left_Eye"><circle id="Left_Eye-2" cx="105.6793" cy="96.6995" r="23.3732" fill="#fff" stroke="#231f20" stroke-miterlimit="10"/><g id="Left_Pupil"><path d="m105.8317,98.1833c3.2173,0,3.2226-5,0-5-3.2173,0-3.2226,5,0,5h0Z" fill="#231f20"/></g></g><g id="Right_Eye"><circle id="Right_Eye-2" cx="199.172" cy="85.013" r="23.3732" fill="#fff" stroke="#231f20" stroke-miterlimit="10"/><g id="Right_Pupil"><path d="m199.7309,85.9886c3.2173,0,3.2226-5,0-5-3.2173,0-3.2226,5,0,5h0Z" fill="#231f20"/></g></g></g></g></svg>