<?xml version="1.0" encoding="UTF-8"?><svg id="Layer_2" xmlns="http://www.w3.org/2000/svg" width="473.2593" height="250" viewBox="0 0 473.2593 250"><g id="extended"><path id="letter" d="m473.2593,139.7844c0,2.9336-.499,5.6318-1.4961,8.0957-.998,2.4639-2.376,4.5918-4.1357,6.3799-1.7598,1.79-3.8281,3.1982-6.2041,4.2236-2.376,1.0273-4.9717,1.541-7.7881,1.541h-20.1523v-70.1367h20.1523c2.8164,0,5.4121.5146,7.7881,1.54,2.376,1.0273,4.4443,2.4355,6.2041,4.2241,1.7598,1.7905,3.1377,3.9312,4.1357,6.4238.9971,2.4946,1.4961,5.1787,1.4961,8.0522v29.6562Zm-37.8398,18.2158h17.6875c2.5811,0,4.9863-.4541,7.2168-1.3643,2.2285-.9082,4.1494-2.1699,5.7637-3.7832,1.6123-1.6133,2.8887-3.4902,3.8281-5.6328.9375-2.1406,1.4082-4.4434,1.4082-6.9082v-30.7114c0-2.4644-.4707-4.7661-1.4082-6.9082-.9395-2.1406-2.2158-4.0039-3.8281-5.5879-1.6143-1.584-3.5352-2.8447-5.7637-3.7842-2.2305-.9375-4.6357-1.4077-7.2168-1.4077h-17.6875v66.0879Zm33.9678-17.6885c0,2.1123-.4111,4.123-1.2324,6.0283-.8213,1.9072-1.9502,3.5791-3.3877,5.0166-1.4385,1.4375-3.1104,2.5664-5.0156,3.3877-1.9072.8223-3.9463,1.2314-6.1162,1.2314h-16.2803v-62.0396h16.2803c2.1699,0,4.209.4111,6.1162,1.2319,1.9053.8223,3.5771,1.9512,5.0156,3.3882,1.4375,1.438,2.5664,3.1099,3.3877,5.0156.8213,1.9072,1.2324,3.916,1.2324,6.0283v30.7114Zm-29.9199,13.7285h13.6396c2.0527,0,3.9453-.3516,5.6768-1.0566,1.7295-.7031,3.2402-1.6855,4.5312-2.9473,1.29-1.2617,2.2881-2.7715,2.9922-4.5322.7041-1.7598,1.0557-3.665,1.0557-5.7197v-29.6562c0-2.0527-.3516-3.96-1.0557-5.7202-.7041-1.7598-1.7021-3.2695-2.9922-4.5317-1.291-1.2607-2.8018-2.2441-4.5312-2.9482-1.7314-.7036-3.624-1.0557-5.6768-1.0557h-13.6396v58.168Zm25.8721-14.2559c0,1.8779-.2939,3.5645-.8799,5.0596-.5869,1.4961-1.4082,2.7725-2.4639,3.8281-1.0566,1.0557-2.3037,1.8779-3.7402,2.4639-1.4385.5879-2.9785.8809-4.6201.8809h-12.2324v-54.1206h12.2324c1.6416,0,3.1816.2939,4.6201.8799,1.4365.5874,2.6836,1.4233,3.7402,2.5078,1.0557,1.0864,1.877,2.3765,2.4639,3.8721.5859,1.4961.8799,3.1543.8799,4.9722v29.6562Zm-21.9121,10.2959h9.6797c3.1094,0,5.5879-.8506,7.4365-2.5518,1.8477-1.7012,2.7715-4.1055,2.7715-7.2168v-30.7114c0-3.1089-.9238-5.5-2.7715-7.1724-1.8486-1.6719-4.3271-2.5078-7.4365-2.5078h-9.6797v50.1602Z"/><path id="letter-2" d="m427.0601,250h-2.0244V108.1921c0-2.2881-.499-4.502-1.4961-6.644-.998-2.1406-2.332-4.0327-4.0039-5.6758-1.6719-1.6421-3.5938-2.9619-5.7637-3.96-2.1709-.9971-4.4307-1.4961-6.7764-1.4961-2.2305,0-4.4297.4839-6.5996,1.4521-2.1709.9678-4.0918,2.2739-5.7646,3.9155-1.6719,1.6436-3.0215,3.5352-4.0479,5.6763-1.0264,2.1421-1.54,4.3862-1.54,6.7319v141.8079h-1.9355V108.3684c0-2.8164.5127-5.4258,1.54-7.832,1.0254-2.4053,2.4492-4.4883,4.2676-6.248,1.8184-1.7603,3.916-3.1377,6.292-4.1362,2.376-.9966,4.9424-1.4961,7.7002-1.4961s5.3525.5146,7.7881,1.54c2.4336,1.0273,4.5762,2.4351,6.4238,4.2241,1.8486,1.79,3.2998,3.8872,4.3564,6.292,1.0557,2.4062,1.584,4.9585,1.584,7.6562v141.6316Zm-4.0479,0h-1.9365v-124.032h-27.9834v124.032h-2.0244V108.6321c0-2.2881.4248-4.4438,1.2764-6.4678.8496-2.0239,1.9932-3.769,3.4316-5.2363,1.4365-1.4653,3.124-2.6245,5.0596-3.4756,1.9365-.8501,3.96-1.2764,6.0723-1.2764,2.2881,0,4.4004.4399,6.3359,1.3203,1.9365.8799,3.6367,2.0679,5.1045,3.564,1.4658,1.4961,2.6094,3.2119,3.4316,5.1479.8213,1.936,1.2324,3.9312,1.2324,5.9839v141.8079Zm-1.9365-125.968v-15.3999c0-1.9937-.3818-3.8569-1.1436-5.5879-.7637-1.73-1.7754-3.2407-3.0361-4.5322-1.2627-1.2896-2.7588-2.3018-4.4883-3.0356-1.7314-.7329-3.5635-1.1001-5.5-1.1001-1.8779,0-3.6523.3672-5.3242,1.1001-1.6719.7339-3.1387,1.731-4.3994,2.9917-1.2627,1.2622-2.2598,2.728-2.9922,4.4004-.7344,1.6719-1.0996,3.4468-1.0996,5.3237v15.8398h27.9834Zm-2.1123-2.0239h-23.8477v-13.376c0-1.7598.293-3.3877.8799-4.8838.5859-1.4961,1.4082-2.7856,2.4639-3.8721,1.0566-1.085,2.3018-1.9497,3.7402-2.5962,1.4365-.6445,3.0059-.9678,4.708-.9678,1.7598,0,3.373.3232,4.8398.9678,1.4658.6465,2.7422,1.5112,3.8281,2.5962,1.085,1.0864,1.9209,2.376,2.5078,3.8721.5859,1.4961.8799,3.124.8799,4.8838v13.376Zm0,127.9919h-1.9355v-119.9832h-19.9756v119.9832h-1.9365v-121.9197h23.8477v121.9197Zm-1.9355-130.0159v-11.792c0-3.1089-.9395-5.5288-2.8164-7.2598-1.8779-1.73-4.3115-2.5962-7.3037-2.5962-3.0508,0-5.4561.9102-7.2158,2.728-1.7598,1.8188-2.6396,4.1953-2.6396,7.1279v11.792h19.9756Z"/><path id="letter-3" d="m382.9722,160.0247h-29.04V0h2.0244v158.0881h27.0156v1.9365Zm0-4.0488h-25.0801V0h2.0244v154.0403h23.0557v1.9355Zm0-3.959h-21.0312V0h1.9355v150.0803h19.0957v1.9365Z"/><path id="letter-4" d="m349.4438,160.0247h-29.04V0h2.0244v158.0881h27.0156v1.9365Zm0-4.0488h-25.0801V0h2.0244v154.0403h23.0557v1.9355Zm0-3.959h-21.0312V0h1.9355v150.0803h19.0957v1.9365Z"/><path id="letter-5" d="m313.981,250h-2.0244V108.1921c0-2.2881-.499-4.502-1.4961-6.644-.998-2.1406-2.332-4.0327-4.0039-5.6758-1.6719-1.6421-3.5938-2.9619-5.7637-3.96-2.1709-.9971-4.4307-1.4961-6.7764-1.4961-2.2305,0-4.4297.4839-6.5996,1.4521-2.1709.9678-4.0918,2.2739-5.7646,3.9155-1.6719,1.6436-3.0215,3.5352-4.0479,5.6763-1.0264,2.1421-1.54,4.3862-1.54,6.7319v141.8079h-1.9355V108.3684c0-2.8164.5127-5.4258,1.54-7.832,1.0254-2.4053,2.4492-4.4883,4.2676-6.248,1.8184-1.7603,3.916-3.1377,6.292-4.1362,2.376-.9966,4.9424-1.4961,7.7002-1.4961s5.3525.5146,7.7881,1.54c2.4336,1.0273,4.5762,2.4351,6.4238,4.2241,1.8486,1.79,3.2998,3.8872,4.3564,6.292,1.0557,2.4062,1.584,4.9585,1.584,7.6562v141.6316Zm-4.0479,0h-1.9365v-124.032h-27.9834v124.032h-2.0244V108.6321c0-2.2881.4248-4.4438,1.2764-6.4678.8496-2.0239,1.9932-3.769,3.4316-5.2363,1.4365-1.4653,3.124-2.6245,5.0596-3.4756,1.9365-.8501,3.96-1.2764,6.0723-1.2764,2.2881,0,4.4004.4399,6.3359,1.3203,1.9365.8799,3.6367,2.0679,5.1045,3.564,1.4658,1.4961,2.6094,3.2119,3.4316,5.1479.8213,1.936,1.2324,3.9312,1.2324,5.9839v141.8079Zm-1.9365-125.968v-15.3999c0-1.9937-.3818-3.8569-1.1436-5.5879-.7637-1.73-1.7754-3.2407-3.0361-4.5322-1.2627-1.2896-2.7588-2.3018-4.4883-3.0356-1.7314-.7329-3.5635-1.1001-5.5-1.1001-1.8779,0-3.6523.3672-5.3242,1.1001-1.6719.7339-3.1387,1.731-4.3994,2.9917-1.2627,1.2622-2.2598,2.728-2.9922,4.4004-.7344,1.6719-1.0996,3.4468-1.0996,5.3237v15.8398h27.9834Zm-2.1123-2.0239h-23.8477v-13.376c0-1.7598.293-3.3877.8799-4.8838.5859-1.4961,1.4082-2.7856,2.4639-3.8721,1.0566-1.085,2.3018-1.9497,3.7402-2.5962,1.4365-.6445,3.0059-.9678,4.708-.9678,1.7598,0,3.373.3232,4.8398.9678,1.4658.6465,2.7422,1.5112,3.8281,2.5962,1.085,1.0864,1.9209,2.376,2.5078,3.8721.5859,1.4961.8799,3.124.8799,4.8838v13.376Zm0,127.9919h-1.9355v-119.9832h-19.9756v119.9832h-1.9365v-121.9197h23.8477v121.9197Zm-1.9355-130.0159v-11.792c0-3.1089-.9395-5.5288-2.8164-7.2598-1.8779-1.73-4.3115-2.5962-7.3037-2.5962-3.0508,0-5.4561.9102-7.2158,2.728-1.7598,1.8188-2.6396,4.1953-2.6396,7.1279v11.792h19.9756Z"/><path id="letter-6" d="m268.2222,140.5754c0,3.1689-.4707,5.9561-1.4082,8.3613-.9385,2.4062-2.2881,4.4297-4.0479,6.0713-1.7598,1.6436-3.8721,2.8896-6.3359,3.7402s-5.2227,1.2764-8.2725,1.2764h-19.7119v-70.1367h19.7119c6.1016,0,10.9414,1.6587,14.5205,4.9722,3.5781,3.3154,5.3682,8.1401,5.3682,14.4761,0,4.1069-.6465,7.3784-1.9365,9.812-1.291,2.4351-3.0215,4.3862-5.1914,5.8521,2.1699,1.4673,3.9297,3.4028,5.2793,5.8076,1.3496,2.4062,2.0244,5.6621,2.0244,9.7676Zm-20.0645,17.5127c5.5732,0,9.9883-1.54,13.2441-4.6201s4.8848-7.377,4.8848-12.8926c0-3.5771-.6465-6.6572-1.9365-9.2393-1.291-2.5811-3.4316-4.6929-6.4238-6.3359,2.9922-1.7012,5.1035-3.8281,6.3359-6.3799,1.2324-2.5522,1.8477-5.646,1.8477-9.2842,0-5.5137-1.5986-9.7969-4.7959-12.8481-3.1982-3.0498-7.583-4.5757-13.1562-4.5757h-17.7754v66.1758h17.7754Zm16.3682-17.5127c0,4.7529-1.4668,8.5078-4.3994,11.2646-2.9346,2.7588-6.9238,4.1357-11.9688,4.1357h-15.8398v-62.0396h15.8398c5.0449,0,9.0049,1.394,11.8809,4.1797,2.873,2.7871,4.3115,6.5273,4.3115,11.2202,0,4.1069-.9541,7.5239-2.8604,10.252s-4.4736,4.5322-7.6992,5.4121c3.2256.8223,5.8213,2.5957,7.7881,5.3232,1.9648,2.7285,2.9473,6.1465,2.9473,10.252Zm-16.3682-16.5435c2.3467,0,4.4141-.3809,6.2041-1.144,1.7891-.7617,3.2852-1.8037,4.4883-3.1235,1.2021-1.3203,2.1123-2.874,2.7285-4.6641.6152-1.7891.9238-3.71.9238-5.7642,0-4.0479-1.2471-7.3042-3.7402-9.7681-2.4941-2.4639-6.0283-3.6958-10.6045-3.6958h-13.7275v28.1597h13.7275Zm-13.7275,1.936v28.0723h13.7275c4.5762,0,8.125-1.2324,10.6484-3.6963,2.5215-2.4639,3.7842-5.7197,3.7842-9.7686,0-2.0527-.3086-3.9727-.9238-5.7637-.6162-1.7891-1.54-3.3438-2.7725-4.6641-1.2314-1.3193-2.7432-2.3452-4.5322-3.0796-1.79-.7329-3.8574-1.1001-6.2041-1.1001h-13.7275Zm1.9355-28.0718h11.792c4.0488,0,7.1289,1.0269,9.2402,3.0801,2.1123,2.0542,3.168,4.8398,3.168,8.3599,0,4.2241-1.1436,7.4072-3.4316,9.5479-2.2881,2.1426-5.2803,3.2119-8.9766,3.2119h-11.792v-24.1997Zm24.376,42.6792c0,3.5205-1.0859,6.3223-3.2559,8.4043-2.1709,2.084-5.2793,3.125-9.3281,3.125h-11.792v-24.0244h11.792c3.6377,0,6.6445,1.042,9.0205,3.124,2.376,2.083,3.5635,5.207,3.5635,9.3711Zm-12.584-20.5034c3.0498,0,5.5732-.8647,7.5684-2.5957,1.9941-1.73,2.9922-4.4443,2.9922-8.1401,0-3.168-.9238-5.5288-2.7725-7.084-1.8477-1.5537-4.4434-2.332-7.7881-2.332h-9.7676v20.1519h9.7676Zm0,30.0962c3.3447,0,5.9697-.8057,7.876-2.4199,1.9062-1.6123,2.8604-4.0039,2.8604-7.1729,0-3.5771-1.0273-6.2471-3.0801-8.0078-2.0537-1.7598-4.6064-2.6396-7.6562-2.6396h-9.7676v20.2402h9.7676Z"/><path id="letter-7" d="m214.2788,125.0002c2.5801,1.7598,4.5,3.9902,5.7637,6.6885,1.2598,2.6992,1.8906,5.6621,1.8906,8.8867v109.4246h-2.0234v-109.4246c0-3.3438-.6895-6.3203-2.0684-8.9316-1.3789-2.6094-3.5625-4.8247-6.5547-6.6436,2.9922-1.7012,5.1035-3.8281,6.3359-6.3799,1.2324-2.5522,1.8477-5.646,1.8477-9.2842,0-5.5137-1.5996-9.7969-4.7969-12.8481-3.1973-3.0498-7.582-4.5757-13.1562-4.5757h-17.7754v158.0876h-1.9355V89.8879h19.7109c6.1016,0,10.9414,1.6587,14.5215,4.9722,3.5781,3.3154,5.3672,8.1401,5.3672,14.4761,0,4.1069-.6465,7.3784-1.9355,9.812-1.291,2.4351-3.0215,4.3862-5.1914,5.8521Zm-26.4883.9678v124.032h-2.1133V93.9363h15.8398c5.0449,0,9.0059,1.394,11.8809,4.1797,2.873,2.7871,4.3125,6.5273,4.3125,11.2202,0,4.1069-.9551,7.5239-2.8613,10.252s-4.4727,4.5322-7.6992,5.4121c3.5195.998,6.2051,2.9341,8.0527,5.8076,1.8477,2.875,2.7715,6.1309,2.7715,9.7676v109.4246h-2.1113v-109.4246c0-2.0527-.3398-3.959-1.0137-5.7188-.6738-1.7607-1.627-3.3008-2.8594-4.6211-1.2324-1.3193-2.7422-2.3604-4.5312-3.1235-1.791-.7617-3.7715-1.144-5.9414-1.144h-13.7266Zm13.7266-1.936c2.3477,0,4.4141-.3809,6.2051-1.144,1.7891-.7617,3.2852-1.8037,4.4883-3.1235,1.2012-1.3203,2.1113-2.874,2.7285-4.6641.6152-1.7891.9238-3.71.9238-5.7642,0-4.0479-1.248-7.3042-3.7402-9.7681-2.4941-2.4639-6.0293-3.6958-10.6055-3.6958h-13.7266v28.1597h13.7266Zm-11.791-26.1357h11.791c4.0488,0,7.1289,1.0269,9.2402,3.0801,2.1133,2.0542,3.168,4.8398,3.168,8.3599,0,4.2241-1.1426,7.4072-3.4316,9.5479-2.2871,2.1426-5.2793,3.2119-8.9766,3.2119h-11.791v-24.1997Zm11.791,30.1841c3.9316,0,6.9824,1.0996,9.1523,3.2998s3.2559,5.2656,3.2559,9.1953v109.4246h-1.9355v-109.4246c0-3.168-.9238-5.7324-2.7715-7.6992-1.8477-1.9648-4.416-2.9482-7.7012-2.9482h-9.7676v120.072h-2.0234v-121.9197h11.791Zm0-8.0083c3.0508,0,5.5742-.8647,7.5684-2.5957,1.9941-1.73,2.9922-4.4443,2.9922-8.1401,0-3.168-.9238-5.5288-2.7715-7.084-1.8477-1.5537-4.4434-2.332-7.7891-2.332h-9.7676v20.1519h9.7676Z"/><path id="letter-8" d="m173.8862,139.8723h1.936v1.7598c0,2.875-.5142,5.5156-1.54,7.9199-1.0269,2.4062-2.4351,4.4883-4.2236,6.248-1.7905,1.7598-3.9023,3.124-6.3364,4.0918-2.4351.9688-5.0308,1.4521-7.7876,1.4521-2.7583,0-5.3545-.4834-7.7881-1.4521-2.4351-.9678-4.5625-2.332-6.3799-4.0918-1.8193-1.7598-3.2427-3.8418-4.2681-6.248-1.0273-2.4043-1.54-5.0449-1.54-7.9199v-33.2637c0-2.874.5127-5.5293,1.54-7.9644,1.0254-2.4336,2.4487-4.5166,4.2681-6.248,1.8174-1.7295,3.9448-3.0801,6.3799-4.0479,2.4336-.9678,5.0298-1.4521,7.7881-1.4521,2.7568,0,5.3525.4844,7.7876,1.4521,2.4341.9678,4.5459,2.3184,6.3364,4.0479,1.7886,1.7314,3.1968,3.8145,4.2236,6.248,1.0259,2.4351,1.54,5.0903,1.54,7.9644v2.0239h-1.936v-2.0239c0-2.6978-.5142-5.1333-1.54-7.3042-1.0269-2.1699-2.376-4.0176-4.0479-5.5439-1.6719-1.5249-3.5791-2.7129-5.7202-3.564-2.1421-.8501-4.356-1.2764-6.6436-1.2764s-4.5186.4263-6.688,1.2764c-2.1714.8511-4.0923,2.0391-5.7642,3.564-1.6719,1.5264-3.0225,3.374-4.0479,5.5439-1.0273,2.1709-1.54,4.6064-1.54,7.3042v33.2637c0,2.6406.5127,5.0469,1.54,7.2168,1.0254,2.1699,2.376,4.0332,4.0479,5.5879s3.5928,2.7422,5.7642,3.5635c2.1694.8223,4.3999,1.2314,6.688,1.2314s4.5015-.4092,6.6436-1.2314c2.1411-.8213,4.0483-2.0088,5.7202-3.5635s3.021-3.418,4.0479-5.5879c1.0259-2.1699,1.54-4.5762,1.54-7.2168v-1.7598Zm-31.856-15.752h20.856v1.936h-20.856v15.5757c0,1.9951.3369,3.8281,1.0122,5.5.6738,1.6719,1.6279,3.124,2.8599,4.3555,1.2319,1.2324,2.6978,2.1875,4.3999,2.8613,1.7012.6738,3.5776,1.0117,5.6323,1.0117,1.9937,0,3.8413-.3379,5.5439-1.0117,1.7007-.6738,3.168-1.6289,4.3999-2.8613,1.2319-1.2314,2.1997-2.6836,2.9038-4.3555s1.0562-3.5049,1.0562-5.5v-1.7598h2.0239v1.7598c0,2.3477-.4399,4.4746-1.3198,6.3799-.8799,1.9072-2.0679,3.5498-3.564,4.9287s-3.1982,2.4492-5.104,3.2109c-1.9072.7637-3.8872,1.1445-5.9399,1.1445-2.0547,0-4.0347-.3809-5.9404-1.1445-1.9067-.7617-3.6079-1.832-5.104-3.2109-1.4956-1.3789-2.6987-3.0215-3.6079-4.9287-.9102-1.9053-1.3638-4.0322-1.3638-6.3799v-33.2637c0-2.3462.4536-4.4883,1.3638-6.4243.9092-1.936,2.1123-3.5928,3.6079-4.9717,1.4961-1.3779,3.1973-2.4492,5.104-3.2124,1.9058-.7617,3.8857-1.144,5.9404-1.144,2.0527,0,4.0327.3823,5.9399,1.144,1.9058.7632,3.6079,1.8345,5.104,3.2124,1.4961,1.3789,2.6841,3.0356,3.564,4.9717s1.3198,4.0781,1.3198,6.4243v2.0239h-2.0239v-2.0239c0-1.9941-.3521-3.8418-1.0562-5.5444-.7041-1.7007-1.6719-3.1528-2.9038-4.356-1.2319-1.2017-2.6992-2.1406-4.3999-2.8159-1.7026-.6738-3.5503-1.0117-5.5439-1.0117-2.0547,0-3.9312.3379-5.6323,1.0117-1.7021.6753-3.168,1.6143-4.3999,2.8159-1.2319,1.2031-2.186,2.6553-2.8599,4.356-.6753,1.7026-1.0122,3.5503-1.0122,5.5444v15.752Zm3.8721-4.0483h16.9839v2.1123h-18.9199v-13.8159c0-1.8179.3218-3.4458.9683-4.8843.6445-1.437,1.5249-2.6689,2.6396-3.6958,1.1138-1.0259,2.3901-1.8042,3.8281-2.332,1.437-.5283,2.9482-.792,4.5322-.792s3.0796.2637,4.4878.792c1.4082.5278,2.6689,1.3062,3.7842,2.332,1.1138,1.0269,1.9937,2.2588,2.6396,3.6958.645,1.4385.9683,3.0664.9683,4.8843v2.0239h-1.936v-2.0239c0-3.1089-.895-5.5142-2.6841-7.2163-1.79-1.7007-4.2104-2.5518-7.2598-2.5518-3.1104,0-5.5596.8511-7.3481,2.5518-1.7905,1.7021-2.6841,4.1074-2.6841,7.2163v11.7036Zm19.9761,19.8003h1.936v1.7598c0,1.8193-.3232,3.4473-.9683,4.8848-.646,1.4375-1.5259,2.6543-2.6396,3.6514-1.1152.998-2.376,1.7598-3.7842,2.2881-1.4082.5273-2.9038.792-4.4878.792s-3.0952-.2646-4.5322-.792c-1.438-.5283-2.7144-1.29-3.8281-2.2881-1.1147-.9971-1.9951-2.2139-2.6396-3.6514-.6465-1.4375-.9683-3.0654-.9683-4.8848v-13.5518h18.9199v2.0244h-16.9839v11.5273c0,3.0508.8936,5.4277,2.6841,7.1279,1.7886,1.7021,4.2378,2.5518,7.3481,2.5518,3.0493,0,5.4697-.8496,7.2598-2.5518,1.7891-1.7002,2.6841-4.0771,2.6841-7.1279v-1.7598Z"/><path id="letter-9" d="m101.7266,250h-1.936v-122.0959h11.7041c2.2881,0,4.5166-.4839,6.688-1.4517,2.1699-.9683,4.1206-2.2729,5.8521-3.916,1.7295-1.6421,3.1089-3.5493,4.1357-5.7202,1.0259-2.1699,1.54-4.4878,1.54-6.9521,0-2.4048-.4702-4.6929-1.4077-6.8638-.9395-2.1699-2.2305-4.0771-3.8721-5.7202-1.6431-1.6416-3.5791-2.9478-5.8081-3.916-2.23-.9678-4.6064-1.4517-7.1279-1.4517h-17.688v158.0876h-2.0239V89.8879h19.7119c2.8159,0,5.4409.5283,7.876,1.5845,2.4336,1.0557,4.561,2.4941,6.3799,4.3115,1.8179,1.8193,3.2559,3.9463,4.312,6.3804,1.0562,2.4351,1.584,5.002,1.584,7.6997,0,2.7583-.5581,5.3545-1.6719,7.7881-1.1152,2.4351-2.6113,4.5625-4.4878,6.3799-1.8784,1.8193-4.0195,3.2427-6.4243,4.2681-2.4062,1.0273-4.9277,1.54-7.5679,1.54h-9.7681v120.1599Zm-3.96,0h-2.0239V93.9363h15.752c2.2881,0,4.4136.4111,6.3799,1.2319,1.9648.8223,3.6812,1.9512,5.1479,3.3882,1.4658,1.438,2.6099,3.1235,3.4321,5.0596.8208,1.936,1.2319,4.0195,1.2319,6.248,0,2.3472-.4399,4.4883-1.3198,6.4243s-2.0679,3.6079-3.564,5.0156c-1.4961,1.4082-3.2271,2.5083-5.1924,3.3003-1.9658.792-4.0039,1.188-6.1157,1.188h-13.728v124.2078Zm13.728-126.1438c1.9937,0,3.8569-.3657,5.5879-1.1001,1.73-.7329,3.2407-1.7295,4.5322-2.9917,1.2896-1.2612,2.3018-2.7422,3.0356-4.4443.7329-1.7007,1.1001-3.52,1.1001-5.4561,0-1.877-.3672-3.6655-1.1001-5.3677-.7339-1.7012-1.731-3.1821-2.9917-4.4443-1.2622-1.2607-2.772-2.2729-4.5322-3.0356-1.7598-.7617-3.6382-1.144-5.6318-1.144h-13.728v27.9839h13.728Zm-11.6162-1.7603v-24.1997h11.6162c1.7598,0,3.3882.3081,4.8838.9238,1.4961.6162,2.7861,1.4521,3.8721,2.5083,1.085,1.0557,1.936,2.3179,2.5522,3.7837.6157,1.4673.9238,3.0513.9238,4.752,0,3.8145-1.1592,6.7915-3.4761,8.9321-2.3184,2.1421-5.2358,3.2119-8.7559,3.2119l-11.6162.0879Zm11.6162-2.2876c3.1089,0,5.5879-.8804,7.436-2.6401,1.8481-1.7603,2.772-4.1938,2.772-7.3042s-.9238-5.5439-2.772-7.3037c-1.8481-1.7603-4.3271-2.6401-7.436-2.6401h-9.7681v19.8882h9.7681Z"/><path id="letter-10" d="m63.1831,250h-1.936v-118.1355c-2.2881-.5859-4.3711-1.4668-6.248-2.6401-1.8784-1.1729-3.5063-2.5962-4.8843-4.2681-1.3789-1.6724-2.4351-3.5337-3.168-5.5879-.7339-2.0532-1.1001-4.2241-1.1001-6.5122V0h1.936v112.3284c0,2.23.396,4.3711,1.188,6.4238.792,2.0542,1.877,3.8872,3.2563,5.5,1.3774,1.6143,3.0059,2.9629,4.8838,4.0479,1.877,1.0864,3.9009,1.8047,6.0723,2.1562v119.5437Zm3.96,0h-1.936v-121.5676c-2.0542-.0581-4.019-.5571-5.896-1.4961-1.8784-.938-3.52-2.126-4.9282-3.564-1.4077-1.437-2.5229-3.0801-3.3438-4.9282-.8223-1.8481-1.2319-3.7095-1.2319-5.5879V0h2.0239v112.3284c0,1.8779.3809,3.667,1.144,5.3677.7617,1.7021,1.8037,3.2119,3.124,4.5322s2.8599,2.3623,4.6196,3.124c1.7603.7632,3.6084,1.144,5.5439,1.144,1.9941,0,3.813-.3809,5.4561-1.144,1.6421-.7617,3.0498-1.8042,4.2241-3.124,1.1729-1.3203,2.0972-2.8301,2.772-4.5322.6738-1.7007,1.0122-3.4897,1.0122-5.3677V0h2.0239v112.3284c0,2.0542-.3823,4.0039-1.144,5.8516-.7632,1.8481-1.8042,3.5063-3.124,4.9722-1.3198,1.4673-2.8599,2.6704-4.6201,3.6079-1.7598.9395-3.667,1.4961-5.7197,1.6724v121.5676Zm10.6479-137.6716c0,1.7021-.3081,3.2998-.9243,4.7959-.6157,1.4961-1.4819,2.7871-2.5957,3.8721-1.1152,1.0859-2.4199,1.9512-3.916,2.5957-1.4961.6465-3.124.9683-4.8843.9683-1.6431,0-3.1831-.3218-4.6196-.9683-1.4385-.6445-2.6841-1.5098-3.7402-2.5957-1.0562-1.085-1.8779-2.376-2.4639-3.8721-.5874-1.4961-.8799-3.0938-.8799-4.7959V0h2.0239v112.3284c0,3.1099.8647,5.5879,2.5957,7.436,1.73,1.8477,4.1499,2.772,7.2603,2.772,3.4609,0,6.0127-.9092,7.6558-2.728,1.6421-1.8179,2.4644-4.1362,2.4644-6.9521V0h2.0239v112.3284Zm-6.6001,137.6716h-2.0239v-119.8953c1.936-.3525,3.7979-1.0566,5.5879-2.1128,1.7891-1.0557,3.3442-2.3457,4.6641-3.8716,1.3198-1.5249,2.376-3.2261,3.168-5.104.792-1.877,1.188-3.8418,1.188-5.896V0h2.0239v112.8562c0,2.2881-.3672,4.4438-1.1001,6.4678-.7339,2.0244-1.7598,3.8584-3.0796,5.5-1.3203,1.6436-2.8755,3.0513-4.6641,4.2241-1.7905,1.1738-3.7114,2.0547-5.7642,2.6406v118.3113Z"/><path id="letter-11" d="m2.0239,250H0V0h2.0239v250Zm33.8799,0h-1.936v-123.9436H6.0718v123.9436h-2.1118V0h2.1118v124.1204h27.896V0h1.936v250Zm-3.96-127.8157H8.0078V0h1.936v120.072h19.9761V0h2.0239v122.1843Zm0,127.8157h-2.0239v-119.8953H9.9438v119.8953h-1.936v-121.9197h23.936v121.9197Zm7.9199,0h-1.936V0h1.936v250Z"/></g></svg>